G04 Layer: TopSilkscreenLayer*
G04 EasyEDA v6.5.46, 2025-03-12 12:44:04*
G04 43a005aebb1148eda2c6f0889f11ea4c,3f48c7b914b54ba696cb8a095b2acdd1,10*
G04 Gerber Generator version 0.2*
G04 Scale: 100 percent, Rotated: No, Reflected: No *
G04 Dimensions in inches *
G04 leading zeros omitted , absolute positions ,3 integer and 6 decimal *
%FSLAX36Y36*%
%MOIN*%

%ADD10C,0.0060*%
%ADD11C,0.0080*%
%ADD12C,0.0100*%
%ADD13C,0.0118*%

%LPD*%
G36*
X1966879Y-1820100D02*
G01*
X1962220Y-1820160D01*
X1957560Y-1820340D01*
X1952920Y-1820620D01*
X1945960Y-1821260D01*
X1936699Y-1822500D01*
X1932100Y-1823300D01*
X1922940Y-1825200D01*
X1913860Y-1827560D01*
X1909360Y-1828899D01*
X1904880Y-1830360D01*
X1900440Y-1831940D01*
X1896020Y-1833620D01*
X1891639Y-1835400D01*
X1887280Y-1837300D01*
X1882960Y-1839319D01*
X1878680Y-1841440D01*
X1872360Y-1844820D01*
X1868180Y-1847220D01*
X1862020Y-1851040D01*
X1857960Y-1853720D01*
X1853959Y-1856500D01*
X1850020Y-1859400D01*
X1845440Y-1862920D01*
X1841279Y-1866240D01*
X1838020Y-1868980D01*
X1836080Y-1870780D01*
X1834600Y-1872540D01*
X1834319Y-1873920D01*
X1835420Y-1875640D01*
X1838100Y-1878400D01*
X1840040Y-1880240D01*
X1841780Y-1881740D01*
X1843140Y-1882760D01*
X1843959Y-1883120D01*
X1844980Y-1882600D01*
X1846960Y-1881180D01*
X1849600Y-1879079D01*
X1854379Y-1875020D01*
X1857980Y-1872080D01*
X1861740Y-1869220D01*
X1865640Y-1866440D01*
X1869680Y-1863740D01*
X1873839Y-1861140D01*
X1878100Y-1858640D01*
X1882480Y-1856240D01*
X1889220Y-1852840D01*
X1893820Y-1850720D01*
X1898480Y-1848700D01*
X1903220Y-1846819D01*
X1908000Y-1845060D01*
X1912820Y-1843420D01*
X1917680Y-1841920D01*
X1922560Y-1840560D01*
X1927460Y-1839340D01*
X1932360Y-1838280D01*
X1936480Y-1837520D01*
X1940900Y-1836879D01*
X1945580Y-1836339D01*
X1950420Y-1835900D01*
X1955400Y-1835580D01*
X1960480Y-1835360D01*
X1965580Y-1835240D01*
X1970660Y-1835240D01*
X1975680Y-1835340D01*
X1980580Y-1835560D01*
X1985320Y-1835880D01*
X1989820Y-1836300D01*
X1994040Y-1836840D01*
X1997940Y-1837500D01*
X2003080Y-1838560D01*
X2008220Y-1839780D01*
X2013340Y-1841140D01*
X2018420Y-1842640D01*
X2023480Y-1844280D01*
X2028480Y-1846040D01*
X2033420Y-1847940D01*
X2038280Y-1849960D01*
X2043060Y-1852080D01*
X2047740Y-1854319D01*
X2052320Y-1856660D01*
X2056780Y-1859120D01*
X2061100Y-1861639D01*
X2065280Y-1864280D01*
X2069300Y-1866980D01*
X2073160Y-1869760D01*
X2076840Y-1872620D01*
X2087340Y-1881680D01*
X2081120Y-1878860D01*
X2079040Y-1878020D01*
X2076960Y-1877340D01*
X2074880Y-1876840D01*
X2072820Y-1876519D01*
X2070780Y-1876360D01*
X2068760Y-1876339D01*
X2066780Y-1876500D01*
X2064840Y-1876780D01*
X2062920Y-1877220D01*
X2061060Y-1877780D01*
X2059259Y-1878460D01*
X2057520Y-1879259D01*
X2055820Y-1880180D01*
X2052660Y-1882340D01*
X2051200Y-1883560D01*
X2049820Y-1884880D01*
X2048540Y-1886279D01*
X2047340Y-1887760D01*
X2046240Y-1889300D01*
X2045240Y-1890900D01*
X2043600Y-1894300D01*
X2042960Y-1896060D01*
X2042460Y-1897860D01*
X2042080Y-1899700D01*
X2041819Y-1901579D01*
X2041720Y-1903460D01*
X2041780Y-1905360D01*
X2041980Y-1907280D01*
X2042340Y-1909199D01*
X2042860Y-1911100D01*
X2043560Y-1913020D01*
X2044420Y-1914900D01*
X2045480Y-1916759D01*
X2046699Y-1918600D01*
X2048200Y-1920500D01*
X2049820Y-1922220D01*
X2051519Y-1923779D01*
X2053320Y-1925180D01*
X2055220Y-1926399D01*
X2057160Y-1927480D01*
X2059180Y-1928380D01*
X2061240Y-1929120D01*
X2063360Y-1929680D01*
X2065480Y-1930100D01*
X2067640Y-1930340D01*
X2069800Y-1930420D01*
X2071980Y-1930320D01*
X2074139Y-1930080D01*
X2076279Y-1929660D01*
X2078380Y-1929079D01*
X2080440Y-1928340D01*
X2082460Y-1927420D01*
X2084420Y-1926360D01*
X2086300Y-1925120D01*
X2088100Y-1923700D01*
X2089820Y-1922140D01*
X2091440Y-1920420D01*
X2092940Y-1918520D01*
X2094139Y-1916800D01*
X2095080Y-1915260D01*
X2095820Y-1913779D01*
X2096360Y-1912300D01*
X2096740Y-1910700D01*
X2096980Y-1908899D01*
X2097140Y-1904379D01*
X2097000Y-1900500D01*
X2096519Y-1896960D01*
X2095760Y-1893880D01*
X2094680Y-1891339D01*
X2092200Y-1886660D01*
X2096860Y-1890940D01*
X2099340Y-1893540D01*
X2101960Y-1896620D01*
X2104680Y-1900080D01*
X2107480Y-1903899D01*
X2110300Y-1908000D01*
X2113120Y-1912340D01*
X2115900Y-1916840D01*
X2118620Y-1921480D01*
X2121220Y-1926160D01*
X2123680Y-1930860D01*
X2125980Y-1935500D01*
X2128040Y-1940040D01*
X2129860Y-1944400D01*
X2131500Y-1948779D01*
X2133020Y-1953460D01*
X2134420Y-1958320D01*
X2135680Y-1963340D01*
X2136800Y-1968500D01*
X2137760Y-1973760D01*
X2138600Y-1979100D01*
X2139260Y-1984500D01*
X2139800Y-1989920D01*
X2140160Y-1995360D01*
X2140380Y-2000760D01*
X2140440Y-2006100D01*
X2140340Y-2011380D01*
X2140080Y-2016540D01*
X2139640Y-2021579D01*
X2139040Y-2026459D01*
X2138260Y-2031160D01*
X2137320Y-2035880D01*
X2136220Y-2040600D01*
X2134960Y-2045320D01*
X2133520Y-2050040D01*
X2131940Y-2054760D01*
X2130220Y-2059440D01*
X2128360Y-2064100D01*
X2126360Y-2068720D01*
X2124220Y-2073280D01*
X2120800Y-2080020D01*
X2118340Y-2084420D01*
X2115780Y-2088720D01*
X2113120Y-2092940D01*
X2110340Y-2097060D01*
X2107480Y-2101060D01*
X2104500Y-2104920D01*
X2101440Y-2108680D01*
X2098280Y-2112280D01*
X2095060Y-2115720D01*
X2089640Y-2121300D01*
X2096980Y-2128140D01*
X2098840Y-2129720D01*
X2100240Y-2130760D01*
X2101000Y-2131160D01*
X2102000Y-2130440D01*
X2104020Y-2128460D01*
X2106780Y-2125560D01*
X2111680Y-2120040D01*
X2115020Y-2116060D01*
X2118220Y-2112000D01*
X2121300Y-2107900D01*
X2124240Y-2103740D01*
X2128440Y-2097400D01*
X2131060Y-2093100D01*
X2133560Y-2088740D01*
X2135920Y-2084340D01*
X2138160Y-2079880D01*
X2140280Y-2075360D01*
X2142260Y-2070800D01*
X2144100Y-2066180D01*
X2145820Y-2061500D01*
X2147420Y-2056780D01*
X2148880Y-2052000D01*
X2150200Y-2047180D01*
X2151400Y-2042320D01*
X2152460Y-2037400D01*
X2153380Y-2032420D01*
X2154040Y-2028200D01*
X2154560Y-2023760D01*
X2154980Y-2019139D01*
X2155260Y-2014379D01*
X2155500Y-2007040D01*
X2155460Y-1999560D01*
X2155300Y-1994540D01*
X2154840Y-1987060D01*
X2154400Y-1982140D01*
X2153860Y-1977320D01*
X2153200Y-1972620D01*
X2152440Y-1968080D01*
X2151580Y-1963720D01*
X2150620Y-1959580D01*
X2149440Y-1955220D01*
X2148000Y-1950480D01*
X2146460Y-1945780D01*
X2144820Y-1941160D01*
X2143040Y-1936600D01*
X2141180Y-1932120D01*
X2139200Y-1927680D01*
X2137100Y-1923320D01*
X2134900Y-1919040D01*
X2132600Y-1914820D01*
X2130180Y-1910660D01*
X2127660Y-1906579D01*
X2125040Y-1902580D01*
X2122320Y-1898660D01*
X2119500Y-1894800D01*
X2116560Y-1891020D01*
X2113540Y-1887320D01*
X2110400Y-1883700D01*
X2107180Y-1880160D01*
X2103840Y-1876699D01*
X2100420Y-1873320D01*
X2096879Y-1870020D01*
X2093260Y-1866819D01*
X2089540Y-1863680D01*
X2085720Y-1860640D01*
X2081819Y-1857680D01*
X2077840Y-1854840D01*
X2073800Y-1852100D01*
X2069720Y-1849480D01*
X2065600Y-1846980D01*
X2061420Y-1844580D01*
X2057200Y-1842280D01*
X2052940Y-1840120D01*
X2044319Y-1836100D01*
X2039940Y-1834259D01*
X2033320Y-1831720D01*
X2028860Y-1830160D01*
X2024379Y-1828720D01*
X2017620Y-1826759D01*
X2013080Y-1825600D01*
X2008520Y-1824540D01*
X2003940Y-1823600D01*
X1999340Y-1822780D01*
X1994720Y-1822060D01*
X1985480Y-1820960D01*
X1976180Y-1820300D01*
X1971519Y-1820140D01*
G37*
G36*
X1985900Y-1849199D02*
G01*
X1983880Y-1849259D01*
X1982200Y-1849580D01*
X1980800Y-1850220D01*
X1979580Y-1851200D01*
X1978480Y-1852560D01*
X1977380Y-1854300D01*
X1974940Y-1859060D01*
X1972900Y-1863480D01*
X1971080Y-1867920D01*
X1969500Y-1872420D01*
X1968120Y-1876940D01*
X1966960Y-1881500D01*
X1966020Y-1886060D01*
X1965300Y-1890660D01*
X1964800Y-1895260D01*
X1964520Y-1899860D01*
X1964440Y-1904460D01*
X1964600Y-1909040D01*
X1964960Y-1913620D01*
X1965540Y-1918180D01*
X1966339Y-1922700D01*
X1967340Y-1927220D01*
X1968580Y-1931680D01*
X1970000Y-1936100D01*
X1971660Y-1940480D01*
X1973520Y-1944800D01*
X1975580Y-1949060D01*
X1977860Y-1953240D01*
X1980360Y-1957380D01*
X1983060Y-1961420D01*
X1985960Y-1965380D01*
X1988800Y-1968860D01*
X1991840Y-1972220D01*
X1995100Y-1975460D01*
X1998560Y-1978580D01*
X2002180Y-1981579D01*
X2005980Y-1984420D01*
X2009920Y-1987120D01*
X2014000Y-1989660D01*
X2018200Y-1992020D01*
X2022500Y-1994220D01*
X2026900Y-1996240D01*
X2031380Y-1998080D01*
X2035900Y-1999700D01*
X2040500Y-2001140D01*
X2045100Y-2002360D01*
X2049740Y-2003360D01*
X2054379Y-2004120D01*
X2062420Y-2005080D01*
X2065460Y-2005680D01*
X2068100Y-2006459D01*
X2070340Y-2007400D01*
X2072200Y-2008500D01*
X2073620Y-2009760D01*
X2074640Y-2011160D01*
X2075220Y-2012680D01*
X2075360Y-2014319D01*
X2075060Y-2016080D01*
X2074300Y-2017940D01*
X2073080Y-2019900D01*
X2072300Y-2020920D01*
X2071519Y-2021680D01*
X2070560Y-2022220D01*
X2069300Y-2022540D01*
X2067580Y-2022700D01*
X2062080Y-2022540D01*
X2055660Y-2022140D01*
X2051040Y-2021660D01*
X2046440Y-2021000D01*
X2041900Y-2020160D01*
X2037380Y-2019139D01*
X2032920Y-2017940D01*
X2028520Y-2016560D01*
X2024160Y-2015020D01*
X2019860Y-2013300D01*
X2015620Y-2011399D01*
X2011440Y-2009319D01*
X2007320Y-2007080D01*
X2003280Y-2004680D01*
X1999300Y-2002100D01*
X1995400Y-1999360D01*
X1991579Y-1996440D01*
X1987840Y-1993380D01*
X1984180Y-1990140D01*
X1980560Y-1986699D01*
X1977060Y-1983100D01*
X1973760Y-1979460D01*
X1970660Y-1975740D01*
X1967760Y-1971920D01*
X1965040Y-1967980D01*
X1962500Y-1963940D01*
X1960100Y-1959740D01*
X1957860Y-1955400D01*
X1955760Y-1950880D01*
X1953800Y-1946160D01*
X1951940Y-1941240D01*
X1950280Y-1936320D01*
X1949019Y-1932020D01*
X1948100Y-1927860D01*
X1947460Y-1923360D01*
X1947000Y-1918020D01*
X1946680Y-1911360D01*
X1946440Y-1903839D01*
X1946339Y-1897680D01*
X1946440Y-1892400D01*
X1946780Y-1887660D01*
X1947400Y-1883080D01*
X1948380Y-1878340D01*
X1949720Y-1873060D01*
X1952580Y-1863340D01*
X1952760Y-1862480D01*
X1952660Y-1861720D01*
X1952220Y-1861000D01*
X1951339Y-1860280D01*
X1949940Y-1859500D01*
X1947920Y-1858600D01*
X1941740Y-1856260D01*
X1930060Y-1852020D01*
X1918180Y-1855640D01*
X1910820Y-1858220D01*
X1903740Y-1860900D01*
X1899139Y-1862860D01*
X1898460Y-1863300D01*
X1896360Y-1875000D01*
X1895740Y-1878959D01*
X1895220Y-1883380D01*
X1894820Y-1888120D01*
X1894379Y-1898320D01*
X1894400Y-1908899D01*
X1894580Y-1914120D01*
X1894880Y-1919180D01*
X1895280Y-1924000D01*
X1895820Y-1928500D01*
X1896459Y-1932600D01*
X1897400Y-1937420D01*
X1898480Y-1942220D01*
X1899720Y-1946960D01*
X1901100Y-1951660D01*
X1902620Y-1956320D01*
X1904259Y-1960940D01*
X1906060Y-1965480D01*
X1907980Y-1969980D01*
X1910040Y-1974420D01*
X1912220Y-1978800D01*
X1914540Y-1983120D01*
X1916960Y-1987360D01*
X1919520Y-1991540D01*
X1922200Y-1995660D01*
X1925000Y-1999680D01*
X1927920Y-2003640D01*
X1930940Y-2007500D01*
X1934079Y-2011279D01*
X1937320Y-2014980D01*
X1940680Y-2018600D01*
X1944139Y-2022120D01*
X1947720Y-2025540D01*
X1951380Y-2028860D01*
X1955140Y-2032080D01*
X1959000Y-2035220D01*
X1962960Y-2038220D01*
X1967020Y-2041120D01*
X1971160Y-2043920D01*
X1975380Y-2046600D01*
X1979700Y-2049160D01*
X1984100Y-2051600D01*
X1988580Y-2053920D01*
X1993240Y-2056160D01*
X1997960Y-2058260D01*
X2002720Y-2060240D01*
X2007520Y-2062080D01*
X2012340Y-2063779D01*
X2017180Y-2065340D01*
X2022040Y-2066759D01*
X2026920Y-2068040D01*
X2031780Y-2069160D01*
X2036620Y-2070140D01*
X2041440Y-2070960D01*
X2046220Y-2071639D01*
X2050960Y-2072140D01*
X2055660Y-2072500D01*
X2060300Y-2072700D01*
X2064880Y-2072740D01*
X2070240Y-2072540D01*
X2075480Y-2072140D01*
X2080000Y-2071560D01*
X2083200Y-2070880D01*
X2085720Y-2070060D01*
X2090560Y-2068160D01*
X2095160Y-2065940D01*
X2099460Y-2063400D01*
X2101520Y-2062020D01*
X2105420Y-2059040D01*
X2109020Y-2055780D01*
X2112300Y-2052240D01*
X2115280Y-2048440D01*
X2116640Y-2046459D01*
X2117920Y-2044400D01*
X2120220Y-2040140D01*
X2121240Y-2037920D01*
X2123000Y-2033320D01*
X2123760Y-2030960D01*
X2124420Y-2028540D01*
X2124980Y-2026060D01*
X2125440Y-2023560D01*
X2126060Y-2018540D01*
X2126320Y-2013760D01*
X2126320Y-2011420D01*
X2126040Y-2006840D01*
X2125400Y-2002420D01*
X2124960Y-2000260D01*
X2123800Y-1996040D01*
X2122280Y-1991960D01*
X2120400Y-1988020D01*
X2118160Y-1984220D01*
X2115560Y-1980540D01*
X2112600Y-1977000D01*
X2109280Y-1973580D01*
X2105580Y-1970260D01*
X2101760Y-1967260D01*
X2097900Y-1964660D01*
X2093940Y-1962440D01*
X2091900Y-1961459D01*
X2087680Y-1959760D01*
X2083220Y-1958360D01*
X2078440Y-1957240D01*
X2073300Y-1956380D01*
X2057860Y-1954180D01*
X2055820Y-1953820D01*
X2053760Y-1953300D01*
X2051660Y-1952640D01*
X2049560Y-1951840D01*
X2045360Y-1949860D01*
X2041220Y-1947400D01*
X2037200Y-1944540D01*
X2035260Y-1942980D01*
X2031540Y-1939600D01*
X2028120Y-1935940D01*
X2026560Y-1934040D01*
X2025080Y-1932060D01*
X2023720Y-1930060D01*
X2022460Y-1928020D01*
X2021339Y-1925940D01*
X2020420Y-1924000D01*
X2018860Y-1919940D01*
X2017700Y-1915700D01*
X2017240Y-1913520D01*
X2016620Y-1909060D01*
X2016380Y-1904560D01*
X2016500Y-1900020D01*
X2017000Y-1895500D01*
X2017840Y-1891060D01*
X2018400Y-1888880D01*
X2019780Y-1884660D01*
X2021519Y-1880620D01*
X2022520Y-1878680D01*
X2024780Y-1875020D01*
X2029000Y-1868940D01*
X2022640Y-1862700D01*
X2020780Y-1861040D01*
X2018940Y-1859560D01*
X2017080Y-1858200D01*
X2015200Y-1857000D01*
X2013260Y-1855900D01*
X2011240Y-1854940D01*
X2009120Y-1854060D01*
X2006900Y-1853280D01*
X2002000Y-1851940D01*
X1994980Y-1850520D01*
X1988380Y-1849420D01*
G37*
G36*
X1848140Y-1899300D02*
G01*
X1840420Y-1908480D01*
X1837360Y-1912420D01*
X1834240Y-1916680D01*
X1831440Y-1920760D01*
X1825080Y-1930780D01*
X1827220Y-1943460D01*
X1828100Y-1948160D01*
X1830180Y-1957500D01*
X1832640Y-1966740D01*
X1834019Y-1971339D01*
X1837060Y-1980440D01*
X1838720Y-1984940D01*
X1842320Y-1993839D01*
X1846279Y-2002620D01*
X1849500Y-2009100D01*
X1851740Y-2013360D01*
X1856500Y-2021759D01*
X1860300Y-2027920D01*
X1865660Y-2035980D01*
X1871339Y-2043820D01*
X1874300Y-2047640D01*
X1880480Y-2055140D01*
X1887020Y-2062420D01*
X1893899Y-2069440D01*
X1899259Y-2074520D01*
X1904800Y-2079460D01*
X1912440Y-2085800D01*
X1920360Y-2091840D01*
X1924420Y-2094760D01*
X1932700Y-2100340D01*
X1936920Y-2103020D01*
X1943380Y-2106880D01*
X1952140Y-2111720D01*
X1958839Y-2115140D01*
X1963360Y-2117320D01*
X1970220Y-2120400D01*
X1979480Y-2124200D01*
X1986519Y-2126800D01*
X1996000Y-2129920D01*
X2000780Y-2131340D01*
X2005580Y-2132660D01*
X2015220Y-2135000D01*
X2022500Y-2136480D01*
X2033899Y-2138460D01*
X2037900Y-2139060D01*
X2040020Y-2139280D01*
X2041660Y-2138840D01*
X2044379Y-2137620D01*
X2047800Y-2135860D01*
X2053500Y-2132460D01*
X2057780Y-2129640D01*
X2062040Y-2126680D01*
X2065800Y-2123920D01*
X2069460Y-2120980D01*
X2071080Y-2119560D01*
X2072260Y-2118300D01*
X2073060Y-2117100D01*
X2073580Y-2115820D01*
X2073860Y-2114340D01*
X2073980Y-2112500D01*
X2073940Y-2106940D01*
X2073460Y-2099780D01*
X2072220Y-2090500D01*
X2059259Y-2090480D01*
X2054880Y-2090320D01*
X2050440Y-2090040D01*
X2045940Y-2089600D01*
X2041380Y-2089019D01*
X2036780Y-2088300D01*
X2032160Y-2087440D01*
X2027480Y-2086459D01*
X2022780Y-2085340D01*
X2018060Y-2084079D01*
X2013340Y-2082700D01*
X2008600Y-2081180D01*
X2003880Y-2079560D01*
X1999160Y-2077800D01*
X1994440Y-2075920D01*
X1985100Y-2071819D01*
X1980460Y-2069600D01*
X1975880Y-2067260D01*
X1971339Y-2064820D01*
X1966860Y-2062260D01*
X1962440Y-2059600D01*
X1958660Y-2057200D01*
X1955220Y-2054780D01*
X1951560Y-2052000D01*
X1947700Y-2048880D01*
X1943700Y-2045500D01*
X1939620Y-2041900D01*
X1931480Y-2034280D01*
X1927520Y-2030380D01*
X1920140Y-2022620D01*
X1916840Y-2018899D01*
X1913839Y-2015340D01*
X1911240Y-2012000D01*
X1908660Y-2008360D01*
X1905860Y-2004160D01*
X1903160Y-1999860D01*
X1900580Y-1995520D01*
X1898120Y-1991100D01*
X1895780Y-1986639D01*
X1893560Y-1982120D01*
X1891459Y-1977560D01*
X1889480Y-1972960D01*
X1887640Y-1968320D01*
X1885920Y-1963660D01*
X1884340Y-1958980D01*
X1882900Y-1954280D01*
X1881579Y-1949560D01*
X1880420Y-1944860D01*
X1879379Y-1940140D01*
X1878500Y-1935440D01*
X1877760Y-1930760D01*
X1877160Y-1926100D01*
X1876699Y-1921440D01*
X1875980Y-1909400D01*
X1875580Y-1905200D01*
X1875280Y-1903660D01*
X1874880Y-1902440D01*
X1874360Y-1901519D01*
X1873660Y-1900840D01*
X1872760Y-1900360D01*
X1871639Y-1900060D01*
X1870260Y-1899880D01*
G37*
G36*
X1817860Y-1986780D02*
G01*
X1815740Y-1987020D01*
X1813000Y-1987700D01*
X1810920Y-1988400D01*
X1809400Y-1989259D01*
X1808360Y-1990480D01*
X1807720Y-1992160D01*
X1807360Y-1994500D01*
X1807200Y-1997600D01*
X1807200Y-2004240D01*
X1807380Y-2009379D01*
X1807740Y-2014500D01*
X1808280Y-2019620D01*
X1808980Y-2024740D01*
X1809860Y-2029820D01*
X1810920Y-2034880D01*
X1812140Y-2039900D01*
X1813540Y-2044900D01*
X1815100Y-2049860D01*
X1816819Y-2054760D01*
X1818700Y-2059600D01*
X1820760Y-2064400D01*
X1822960Y-2069120D01*
X1825320Y-2073779D01*
X1827840Y-2078360D01*
X1830520Y-2082860D01*
X1833340Y-2087280D01*
X1835960Y-2091060D01*
X1838580Y-2094480D01*
X1841600Y-2098080D01*
X1844940Y-2101840D01*
X1848520Y-2105660D01*
X1852320Y-2109500D01*
X1856220Y-2113280D01*
X1860200Y-2116940D01*
X1864160Y-2120400D01*
X1868020Y-2123620D01*
X1871759Y-2126520D01*
X1875260Y-2129040D01*
X1878980Y-2131440D01*
X1883120Y-2133920D01*
X1887320Y-2136300D01*
X1891600Y-2138540D01*
X1895920Y-2140660D01*
X1900300Y-2142660D01*
X1904740Y-2144520D01*
X1909220Y-2146280D01*
X1913760Y-2147880D01*
X1918320Y-2149360D01*
X1922940Y-2150720D01*
X1927580Y-2151940D01*
X1932260Y-2153040D01*
X1936960Y-2154000D01*
X1941699Y-2154820D01*
X1946459Y-2155500D01*
X1951220Y-2156060D01*
X1956020Y-2156480D01*
X1960820Y-2156760D01*
X1965640Y-2156900D01*
X1979880Y-2156900D01*
X1982820Y-2150020D01*
X1983959Y-2146860D01*
X1984120Y-2146080D01*
X1983480Y-2145460D01*
X1981720Y-2144520D01*
X1979100Y-2143380D01*
X1971519Y-2140480D01*
X1963440Y-2137060D01*
X1952380Y-2132000D01*
X1943640Y-2127640D01*
X1935080Y-2122960D01*
X1930880Y-2120520D01*
X1924680Y-2116720D01*
X1918600Y-2112740D01*
X1914600Y-2110020D01*
X1908720Y-2105780D01*
X1901100Y-2099920D01*
X1897360Y-2096879D01*
X1891879Y-2092220D01*
X1886540Y-2087400D01*
X1881339Y-2082440D01*
X1874640Y-2075640D01*
X1868200Y-2068580D01*
X1863540Y-2063160D01*
X1857580Y-2055720D01*
X1851900Y-2048080D01*
X1846519Y-2040220D01*
X1841440Y-2032180D01*
X1839000Y-2028080D01*
X1835500Y-2021860D01*
X1831120Y-2013400D01*
X1828040Y-2006940D01*
X1824240Y-1998200D01*
X1821060Y-1990580D01*
X1819440Y-1987740D01*
G37*
G36*
X1769360Y-1076640D02*
G01*
X1769360Y-1108460D01*
X1777280Y-1108460D01*
X1777340Y-1103420D01*
X1777760Y-1098460D01*
X1778520Y-1093760D01*
X1779040Y-1091580D01*
X1779660Y-1089560D01*
X1780360Y-1087680D01*
X1781160Y-1086000D01*
X1782060Y-1084540D01*
X1782920Y-1083620D01*
X1784079Y-1082800D01*
X1785540Y-1082080D01*
X1787240Y-1081500D01*
X1789160Y-1081000D01*
X1791240Y-1080620D01*
X1795840Y-1080180D01*
X1798280Y-1080120D01*
X1897280Y-1080220D01*
X1899480Y-1080440D01*
X1901060Y-1080940D01*
X1902100Y-1081860D01*
X1902680Y-1083260D01*
X1902900Y-1085260D01*
X1902780Y-1088000D01*
X1901260Y-1102980D01*
X1909680Y-1088320D01*
X1911360Y-1085660D01*
X1912860Y-1083580D01*
X1914220Y-1082100D01*
X1915500Y-1081220D01*
X1916720Y-1080920D01*
X1917960Y-1081220D01*
X1919220Y-1082100D01*
X1920580Y-1083580D01*
X1922080Y-1085660D01*
X1923760Y-1088320D01*
X1932180Y-1102980D01*
X1930680Y-1088120D01*
X1930580Y-1085440D01*
X1930740Y-1083440D01*
X1931240Y-1082000D01*
X1932120Y-1081060D01*
X1933420Y-1080500D01*
X1935220Y-1080220D01*
X1939300Y-1080180D01*
X1940760Y-1080300D01*
X1941960Y-1080620D01*
X1942920Y-1081180D01*
X1943680Y-1082100D01*
X1944259Y-1083420D01*
X1944680Y-1085260D01*
X1944980Y-1087660D01*
X1945160Y-1090740D01*
X1945280Y-1099180D01*
X1945300Y-1129300D01*
X1936080Y-1129300D01*
X1933420Y-1129180D01*
X1931180Y-1128780D01*
X1929259Y-1128020D01*
X1927580Y-1126840D01*
X1926040Y-1125140D01*
X1924580Y-1122840D01*
X1923100Y-1119880D01*
X1921500Y-1116180D01*
X1916140Y-1103060D01*
X1911279Y-1113540D01*
X1909460Y-1117820D01*
X1908060Y-1121720D01*
X1907200Y-1124820D01*
X1907080Y-1126660D01*
X1906420Y-1127680D01*
X1904199Y-1128520D01*
X1900760Y-1129080D01*
X1896420Y-1129300D01*
X1885140Y-1129300D01*
X1885140Y-1080160D01*
X1800780Y-1080160D01*
X1803280Y-1080300D01*
X1805760Y-1080540D01*
X1808180Y-1080880D01*
X1810540Y-1081320D01*
X1812760Y-1081860D01*
X1814840Y-1082500D01*
X1816740Y-1083220D01*
X1818420Y-1084040D01*
X1819860Y-1084960D01*
X1821000Y-1085960D01*
X1822180Y-1087380D01*
X1823220Y-1089020D01*
X1824160Y-1090840D01*
X1824960Y-1092800D01*
X1825660Y-1094920D01*
X1826240Y-1097160D01*
X1826699Y-1099460D01*
X1827040Y-1101840D01*
X1827380Y-1106720D01*
X1827400Y-1109140D01*
X1827300Y-1111560D01*
X1826780Y-1116180D01*
X1826360Y-1118340D01*
X1825738Y-1120700D01*
X1830440Y-1120700D01*
X1830860Y-1119560D01*
X1831780Y-1118200D01*
X1833140Y-1116520D01*
X1834620Y-1114900D01*
X1835900Y-1113760D01*
X1837120Y-1113080D01*
X1838360Y-1112900D01*
X1839760Y-1113220D01*
X1841380Y-1114020D01*
X1843380Y-1115340D01*
X1845820Y-1117160D01*
X1847960Y-1118620D01*
X1850080Y-1119740D01*
X1852160Y-1120540D01*
X1854199Y-1121000D01*
X1856160Y-1121140D01*
X1858040Y-1121000D01*
X1859820Y-1120560D01*
X1861480Y-1119820D01*
X1863020Y-1118800D01*
X1864400Y-1117520D01*
X1865620Y-1115980D01*
X1866639Y-1114200D01*
X1867480Y-1112160D01*
X1868100Y-1109900D01*
X1868480Y-1107420D01*
X1868600Y-1104720D01*
X1868480Y-1102040D01*
X1868100Y-1099560D01*
X1867480Y-1097320D01*
X1866660Y-1095280D01*
X1865620Y-1093500D01*
X1864420Y-1091960D01*
X1863040Y-1090680D01*
X1861500Y-1089660D01*
X1859860Y-1088900D01*
X1858080Y-1088440D01*
X1856200Y-1088280D01*
X1854259Y-1088420D01*
X1852240Y-1088860D01*
X1850180Y-1089640D01*
X1848080Y-1090740D01*
X1843760Y-1093780D01*
X1841879Y-1094980D01*
X1840240Y-1095760D01*
X1838779Y-1096140D01*
X1837460Y-1096120D01*
X1836200Y-1095720D01*
X1834940Y-1094940D01*
X1833620Y-1093800D01*
X1832600Y-1092600D01*
X1832000Y-1091400D01*
X1831800Y-1090220D01*
X1831980Y-1089040D01*
X1832520Y-1087880D01*
X1833380Y-1086780D01*
X1834580Y-1085720D01*
X1836080Y-1084720D01*
X1837880Y-1083800D01*
X1839920Y-1082960D01*
X1842220Y-1082220D01*
X1844760Y-1081580D01*
X1847480Y-1081040D01*
X1850420Y-1080640D01*
X1853500Y-1080400D01*
X1856759Y-1080280D01*
X1859199Y-1080340D01*
X1861560Y-1080520D01*
X1863820Y-1080840D01*
X1865960Y-1081300D01*
X1868000Y-1081880D01*
X1869920Y-1082600D01*
X1871720Y-1083440D01*
X1873420Y-1084420D01*
X1875000Y-1085500D01*
X1876459Y-1086700D01*
X1877780Y-1088020D01*
X1878980Y-1089460D01*
X1880040Y-1091020D01*
X1880980Y-1092660D01*
X1881780Y-1094420D01*
X1882440Y-1096300D01*
X1882960Y-1098260D01*
X1883340Y-1100320D01*
X1883560Y-1102480D01*
X1883640Y-1104720D01*
X1883560Y-1106920D01*
X1883300Y-1109040D01*
X1882860Y-1111060D01*
X1882280Y-1113020D01*
X1881540Y-1114860D01*
X1880640Y-1116620D01*
X1879620Y-1118280D01*
X1878440Y-1119840D01*
X1877160Y-1121280D01*
X1875740Y-1122640D01*
X1874199Y-1123880D01*
X1872560Y-1125020D01*
X1870820Y-1126020D01*
X1868980Y-1126920D01*
X1867060Y-1127700D01*
X1865040Y-1128360D01*
X1862960Y-1128900D01*
X1860800Y-1129300D01*
X1858560Y-1129560D01*
X1856279Y-1129700D01*
X1853940Y-1129700D01*
X1851560Y-1129560D01*
X1849160Y-1129280D01*
X1846699Y-1128860D01*
X1844220Y-1128280D01*
X1841720Y-1127560D01*
X1839220Y-1126680D01*
X1836699Y-1125640D01*
X1834240Y-1124500D01*
X1832400Y-1123520D01*
X1831180Y-1122600D01*
X1830540Y-1121700D01*
X1830440Y-1120700D01*
X1825738Y-1120700D01*
X1825240Y-1122280D01*
X1824520Y-1124000D01*
X1823700Y-1125520D01*
X1822800Y-1126820D01*
X1821780Y-1127860D01*
X1820700Y-1128640D01*
X1819500Y-1129120D01*
X1818220Y-1129300D01*
X1816399Y-1129280D01*
X1814860Y-1129160D01*
X1813580Y-1128920D01*
X1812540Y-1128480D01*
X1811740Y-1127780D01*
X1811120Y-1126780D01*
X1810660Y-1125420D01*
X1810340Y-1123660D01*
X1810140Y-1121400D01*
X1809960Y-1115280D01*
X1809880Y-1107540D01*
X1809680Y-1104100D01*
X1809319Y-1100960D01*
X1808860Y-1098120D01*
X1808260Y-1095600D01*
X1807540Y-1093400D01*
X1806699Y-1091540D01*
X1805760Y-1090000D01*
X1804720Y-1088820D01*
X1803560Y-1087980D01*
X1802340Y-1087500D01*
X1801000Y-1087380D01*
X1799600Y-1087640D01*
X1798100Y-1088260D01*
X1796540Y-1089280D01*
X1794920Y-1090680D01*
X1793640Y-1092140D01*
X1792620Y-1093840D01*
X1791819Y-1095840D01*
X1791240Y-1098220D01*
X1790860Y-1101000D01*
X1790700Y-1104260D01*
X1790720Y-1108040D01*
X1791200Y-1117740D01*
X1791300Y-1121800D01*
X1791140Y-1124780D01*
X1790680Y-1126840D01*
X1789840Y-1128160D01*
X1788540Y-1128900D01*
X1786759Y-1129220D01*
X1784400Y-1129300D01*
X1783420Y-1129120D01*
X1782500Y-1128620D01*
X1781660Y-1127820D01*
X1780880Y-1126720D01*
X1780180Y-1125380D01*
X1779560Y-1123820D01*
X1779000Y-1122040D01*
X1778520Y-1120080D01*
X1777780Y-1115720D01*
X1777360Y-1110940D01*
X1777280Y-1108460D01*
X1769360Y-1108460D01*
X1769360Y-1132800D01*
X1949800Y-1132800D01*
X1949800Y-1076640D01*
G37*
G36*
X2128020Y-1079880D02*
G01*
X2127160Y-1080140D01*
X2126400Y-1080680D01*
X2125700Y-1081480D01*
X2125100Y-1082560D01*
X2124560Y-1083920D01*
X2124120Y-1085540D01*
X2123720Y-1087440D01*
X2123160Y-1092080D01*
X2122840Y-1097840D01*
X2122740Y-1104720D01*
X2122880Y-1110620D01*
X2123260Y-1115860D01*
X2123860Y-1120440D01*
X2124620Y-1124260D01*
X2125540Y-1127360D01*
X2126020Y-1128600D01*
X2126540Y-1129640D01*
X2127080Y-1130480D01*
X2127620Y-1131100D01*
X2128160Y-1131520D01*
X2128720Y-1131720D01*
X2129260Y-1131680D01*
X2129800Y-1131420D01*
X2130340Y-1130920D01*
X2130860Y-1130200D01*
X2131820Y-1128000D01*
X2132260Y-1126540D01*
X2133020Y-1122840D01*
X2133620Y-1118080D01*
X2134760Y-1101280D01*
X2149040Y-1117660D01*
X2153080Y-1122000D01*
X2154880Y-1123800D01*
X2156560Y-1125340D01*
X2158120Y-1126640D01*
X2159560Y-1127680D01*
X2160860Y-1128480D01*
X2162060Y-1129020D01*
X2163140Y-1129280D01*
X2164120Y-1129300D01*
X2165000Y-1129040D01*
X2165800Y-1128540D01*
X2166480Y-1127740D01*
X2167100Y-1126700D01*
X2167620Y-1125360D01*
X2168060Y-1123760D01*
X2168740Y-1119740D01*
X2169140Y-1114580D01*
X2169340Y-1108300D01*
X2169340Y-1099780D01*
X2169160Y-1091940D01*
X2169000Y-1088940D01*
X2168740Y-1086460D01*
X2168420Y-1084500D01*
X2167980Y-1082960D01*
X2167440Y-1081820D01*
X2166800Y-1081020D01*
X2166000Y-1080500D01*
X2165080Y-1080240D01*
X2164020Y-1080160D01*
X2162520Y-1080280D01*
X2161360Y-1080720D01*
X2160500Y-1081540D01*
X2159900Y-1082820D01*
X2159560Y-1084660D01*
X2159460Y-1087100D01*
X2159540Y-1090260D01*
X2160040Y-1097300D01*
X2160120Y-1100000D01*
X2160080Y-1102280D01*
X2159900Y-1104160D01*
X2159580Y-1105600D01*
X2159100Y-1106640D01*
X2158480Y-1107260D01*
X2157660Y-1107480D01*
X2156680Y-1107260D01*
X2155520Y-1106640D01*
X2154140Y-1105600D01*
X2152580Y-1104160D01*
X2150800Y-1102280D01*
X2146600Y-1097300D01*
X2142120Y-1091620D01*
X2138420Y-1087220D01*
X2135180Y-1083820D01*
X2133740Y-1082520D01*
X2132400Y-1081460D01*
X2131160Y-1080680D01*
X2130020Y-1080140D01*
X2128980Y-1079880D01*
G37*
G36*
X2087200Y-1080160D02*
G01*
X2085120Y-1080300D01*
X2083020Y-1080740D01*
X2080960Y-1081420D01*
X2078920Y-1082340D01*
X2076920Y-1083480D01*
X2075020Y-1084820D01*
X2073200Y-1086340D01*
X2071480Y-1088020D01*
X2069900Y-1089840D01*
X2068480Y-1091780D01*
X2067220Y-1093800D01*
X2066140Y-1095920D01*
X2065280Y-1098080D01*
X2064640Y-1100280D01*
X2064220Y-1102500D01*
X2064124Y-1105460D01*
X2073480Y-1105460D01*
X2073520Y-1103480D01*
X2073760Y-1101540D01*
X2074180Y-1099640D01*
X2074800Y-1097800D01*
X2075580Y-1096040D01*
X2076519Y-1094380D01*
X2077640Y-1092860D01*
X2078899Y-1091460D01*
X2080300Y-1090240D01*
X2081860Y-1089180D01*
X2083520Y-1088340D01*
X2085320Y-1087700D01*
X2087240Y-1087320D01*
X2089259Y-1087180D01*
X2091399Y-1087300D01*
X2093380Y-1087700D01*
X2095180Y-1088340D01*
X2096819Y-1089240D01*
X2098280Y-1090380D01*
X2099560Y-1091760D01*
X2100660Y-1093360D01*
X2101560Y-1095200D01*
X2102260Y-1097260D01*
X2102780Y-1099540D01*
X2103080Y-1102020D01*
X2103180Y-1104720D01*
X2103080Y-1107140D01*
X2102760Y-1109420D01*
X2102240Y-1111540D01*
X2101520Y-1113500D01*
X2100660Y-1115280D01*
X2099620Y-1116900D01*
X2098460Y-1118320D01*
X2097180Y-1119560D01*
X2095800Y-1120580D01*
X2094319Y-1121420D01*
X2092760Y-1122020D01*
X2091140Y-1122420D01*
X2089480Y-1122580D01*
X2087780Y-1122520D01*
X2086080Y-1122200D01*
X2084360Y-1121640D01*
X2082680Y-1120820D01*
X2081020Y-1119740D01*
X2079400Y-1118400D01*
X2077840Y-1116760D01*
X2076540Y-1115040D01*
X2075480Y-1113220D01*
X2074640Y-1111340D01*
X2074040Y-1109400D01*
X2073660Y-1107440D01*
X2073480Y-1105460D01*
X2064124Y-1105460D01*
X2064180Y-1107120D01*
X2064480Y-1109400D01*
X2064940Y-1111580D01*
X2065580Y-1113640D01*
X2066380Y-1115600D01*
X2067320Y-1117400D01*
X2068420Y-1119100D01*
X2069660Y-1120660D01*
X2071040Y-1122080D01*
X2072540Y-1123360D01*
X2074160Y-1124500D01*
X2075880Y-1125480D01*
X2077700Y-1126320D01*
X2079600Y-1127000D01*
X2081600Y-1127520D01*
X2083660Y-1127880D01*
X2085800Y-1128060D01*
X2088000Y-1128080D01*
X2090260Y-1127900D01*
X2092540Y-1127560D01*
X2094880Y-1127020D01*
X2097240Y-1126300D01*
X2099620Y-1125380D01*
X2102000Y-1124280D01*
X2103760Y-1123280D01*
X2105380Y-1122200D01*
X2106860Y-1121040D01*
X2108180Y-1119800D01*
X2109340Y-1118480D01*
X2110380Y-1117100D01*
X2111280Y-1115660D01*
X2112040Y-1114180D01*
X2112660Y-1112640D01*
X2113160Y-1111060D01*
X2113520Y-1109460D01*
X2113760Y-1107840D01*
X2113860Y-1106200D01*
X2113720Y-1102900D01*
X2113100Y-1099620D01*
X2112020Y-1096420D01*
X2111320Y-1094860D01*
X2109600Y-1091860D01*
X2108580Y-1090460D01*
X2107460Y-1089100D01*
X2106260Y-1087820D01*
X2104940Y-1086600D01*
X2103560Y-1085480D01*
X2102060Y-1084440D01*
X2100480Y-1083480D01*
X2098820Y-1082640D01*
X2097080Y-1081920D01*
X2095260Y-1081300D01*
X2093360Y-1080820D01*
X2091380Y-1080460D01*
X2089319Y-1080240D01*
G37*
G36*
X2053560Y-1080160D02*
G01*
X2035160Y-1080260D01*
X2032040Y-1080400D01*
X2029139Y-1080640D01*
X2026480Y-1080980D01*
X2024019Y-1081420D01*
X2021780Y-1081980D01*
X2019740Y-1082660D01*
X2017900Y-1083440D01*
X2016260Y-1084360D01*
X2014780Y-1085420D01*
X2013480Y-1086620D01*
X2012340Y-1087980D01*
X2011380Y-1089480D01*
X2010560Y-1091140D01*
X2009880Y-1092960D01*
X2009360Y-1094940D01*
X2008940Y-1097120D01*
X2008660Y-1099460D01*
X2008500Y-1102000D01*
X2008480Y-1106120D01*
X2015060Y-1106120D01*
X2015140Y-1104060D01*
X2015460Y-1102020D01*
X2015980Y-1100040D01*
X2016699Y-1098140D01*
X2017600Y-1096320D01*
X2018700Y-1094600D01*
X2019980Y-1093020D01*
X2021420Y-1091580D01*
X2023020Y-1090320D01*
X2024780Y-1089240D01*
X2026660Y-1088360D01*
X2028700Y-1087720D01*
X2030840Y-1087320D01*
X2033120Y-1087180D01*
X2037280Y-1087260D01*
X2038839Y-1087460D01*
X2040080Y-1087840D01*
X2041060Y-1088460D01*
X2041800Y-1089380D01*
X2042320Y-1090680D01*
X2042660Y-1092400D01*
X2042880Y-1094600D01*
X2043040Y-1100700D01*
X2043040Y-1104720D01*
X2042940Y-1107400D01*
X2042660Y-1109900D01*
X2042220Y-1112240D01*
X2041620Y-1114360D01*
X2040860Y-1116320D01*
X2039980Y-1118060D01*
X2038959Y-1119600D01*
X2037840Y-1120940D01*
X2036600Y-1122040D01*
X2035280Y-1122940D01*
X2033880Y-1123600D01*
X2032420Y-1124020D01*
X2030900Y-1124200D01*
X2029319Y-1124120D01*
X2027720Y-1123780D01*
X2026100Y-1123200D01*
X2024460Y-1122340D01*
X2022820Y-1121200D01*
X2021180Y-1119780D01*
X2019580Y-1118060D01*
X2018180Y-1116220D01*
X2017060Y-1114280D01*
X2016180Y-1112300D01*
X2015560Y-1110260D01*
X2015200Y-1108180D01*
X2015060Y-1106120D01*
X2008480Y-1106120D01*
X2008660Y-1110000D01*
X2008940Y-1112340D01*
X2009360Y-1114500D01*
X2009880Y-1116500D01*
X2010560Y-1118320D01*
X2011380Y-1119980D01*
X2012340Y-1121480D01*
X2013480Y-1122820D01*
X2014780Y-1124020D01*
X2016260Y-1125080D01*
X2017900Y-1126000D01*
X2019740Y-1126800D01*
X2021780Y-1127480D01*
X2024019Y-1128020D01*
X2026480Y-1128460D01*
X2029139Y-1128800D01*
X2032040Y-1129040D01*
X2038520Y-1129240D01*
X2053560Y-1129300D01*
G37*
G36*
X1976879Y-1080160D02*
G01*
X1972520Y-1080220D01*
X1968500Y-1080420D01*
X1964920Y-1080740D01*
X1961840Y-1081160D01*
X1959319Y-1081680D01*
X1957420Y-1082280D01*
X1956240Y-1082940D01*
X1955820Y-1083660D01*
X1956120Y-1084380D01*
X1957000Y-1085040D01*
X1958400Y-1085620D01*
X1960240Y-1086140D01*
X1962460Y-1086580D01*
X1965020Y-1086900D01*
X1967840Y-1087100D01*
X1975540Y-1087220D01*
X1979120Y-1087400D01*
X1981780Y-1087800D01*
X1983640Y-1088500D01*
X1984840Y-1089580D01*
X1985520Y-1091120D01*
X1985820Y-1093220D01*
X1985900Y-1095960D01*
X1985820Y-1098540D01*
X1985540Y-1100560D01*
X1985000Y-1102100D01*
X1984100Y-1103220D01*
X1982760Y-1103980D01*
X1980900Y-1104440D01*
X1978480Y-1104660D01*
X1975380Y-1104720D01*
X1971279Y-1105000D01*
X1967940Y-1105760D01*
X1965680Y-1106880D01*
X1964840Y-1108240D01*
X1965680Y-1109600D01*
X1967940Y-1110720D01*
X1971279Y-1111460D01*
X1980120Y-1112060D01*
X1983400Y-1113000D01*
X1985280Y-1114640D01*
X1985900Y-1117000D01*
X1985720Y-1118380D01*
X1985140Y-1119500D01*
X1984139Y-1120420D01*
X1982640Y-1121140D01*
X1980600Y-1121660D01*
X1978000Y-1122000D01*
X1974760Y-1122200D01*
X1967840Y-1122340D01*
X1965020Y-1122540D01*
X1962460Y-1122880D01*
X1960240Y-1123300D01*
X1958400Y-1123820D01*
X1957000Y-1124420D01*
X1956120Y-1125080D01*
X1955820Y-1125780D01*
X1956240Y-1126500D01*
X1957420Y-1127180D01*
X1959319Y-1127780D01*
X1961840Y-1128280D01*
X1964920Y-1128720D01*
X1968500Y-1129020D01*
X1972520Y-1129220D01*
X1976879Y-1129300D01*
X1997920Y-1129300D01*
X1997920Y-1080160D01*
G37*
D10*
X1988000Y-2639400D02*
G01*
X1988000Y-2596500D01*
X1988000Y-2639400D02*
G01*
X1961400Y-2639400D01*
X1988000Y-2619000D02*
G01*
X1971599Y-2619000D01*
X1988000Y-2596500D02*
G01*
X1961400Y-2596500D01*
X1919300Y-2633299D02*
G01*
X1923400Y-2637399D01*
X1929499Y-2639400D01*
X1937700Y-2639400D01*
X1943800Y-2637399D01*
X1947899Y-2633299D01*
X1947899Y-2629200D01*
X1945900Y-2625100D01*
X1943800Y-2623000D01*
X1939700Y-2620999D01*
X1927500Y-2616900D01*
X1923400Y-2614899D01*
X1921300Y-2612800D01*
X1919300Y-2608699D01*
X1919300Y-2602600D01*
X1923400Y-2598499D01*
X1929499Y-2596500D01*
X1937700Y-2596500D01*
X1943800Y-2598499D01*
X1947899Y-2602600D01*
X1905799Y-2639400D02*
G01*
X1905799Y-2596500D01*
X1905799Y-2639400D02*
G01*
X1887399Y-2639400D01*
X1881199Y-2637399D01*
X1879200Y-2635300D01*
X1877100Y-2631199D01*
X1877100Y-2625100D01*
X1879200Y-2620999D01*
X1881199Y-2619000D01*
X1887399Y-2616900D01*
X1905799Y-2616900D01*
X1847299Y-2639400D02*
G01*
X1863599Y-2596500D01*
X1847299Y-2639400D02*
G01*
X1830900Y-2596500D01*
X1857500Y-2610799D02*
G01*
X1836999Y-2610799D01*
X1817399Y-2631199D02*
G01*
X1813299Y-2633299D01*
X1807200Y-2639400D01*
X1807200Y-2596500D01*
X2240000Y-1700399D02*
G01*
X2240000Y-1662199D01*
X2240000Y-1700399D02*
G01*
X2216400Y-1700399D01*
X2240000Y-1682199D02*
G01*
X2225500Y-1682199D01*
X2240000Y-1662199D02*
G01*
X2216400Y-1662199D01*
X2178900Y-1694899D02*
G01*
X2182500Y-1698499D01*
X2188000Y-1700399D01*
X2195299Y-1700399D01*
X2200699Y-1698499D01*
X2204399Y-1694899D01*
X2204399Y-1691300D01*
X2202500Y-1687600D01*
X2200699Y-1685799D01*
X2197100Y-1684000D01*
X2186199Y-1680399D01*
X2182500Y-1678499D01*
X2180699Y-1676700D01*
X2178900Y-1673099D01*
X2178900Y-1667600D01*
X2182500Y-1664000D01*
X2188000Y-1662199D01*
X2195299Y-1662199D01*
X2200699Y-1664000D01*
X2204399Y-1667600D01*
X2166899Y-1700399D02*
G01*
X2166899Y-1662199D01*
X2166899Y-1700399D02*
G01*
X2150500Y-1700399D01*
X2145100Y-1698499D01*
X2143299Y-1696700D01*
X2141499Y-1693099D01*
X2141499Y-1687600D01*
X2143299Y-1684000D01*
X2145100Y-1682199D01*
X2150500Y-1680399D01*
X2166899Y-1680399D01*
X2129499Y-1678499D02*
G01*
X2096700Y-1678499D01*
X2075600Y-1700399D02*
G01*
X2081099Y-1698499D01*
X2082899Y-1694899D01*
X2082899Y-1691300D01*
X2081099Y-1687600D01*
X2077500Y-1685799D01*
X2070200Y-1684000D01*
X2064700Y-1682199D01*
X2061099Y-1678499D01*
X2059300Y-1674899D01*
X2059300Y-1669499D01*
X2061099Y-1665799D01*
X2062899Y-1664000D01*
X2068400Y-1662199D01*
X2075600Y-1662199D01*
X2081099Y-1664000D01*
X2082899Y-1665799D01*
X2084700Y-1669499D01*
X2084700Y-1674899D01*
X2082899Y-1678499D01*
X2079300Y-1682199D01*
X2073800Y-1684000D01*
X2066499Y-1685799D01*
X2062899Y-1687600D01*
X2061099Y-1691300D01*
X2061099Y-1694899D01*
X2062899Y-1698499D01*
X2068400Y-1700399D01*
X2075600Y-1700399D01*
X2045500Y-1691300D02*
G01*
X2045500Y-1693099D01*
X2043599Y-1696700D01*
X2041800Y-1698499D01*
X2038199Y-1700399D01*
X2030900Y-1700399D01*
X2027299Y-1698499D01*
X2025500Y-1696700D01*
X2023599Y-1693099D01*
X2023599Y-1689499D01*
X2025500Y-1685799D01*
X2029099Y-1680399D01*
X2047299Y-1662199D01*
X2021800Y-1662199D01*
X1988000Y-1694899D02*
G01*
X1989799Y-1698499D01*
X1995299Y-1700399D01*
X1998900Y-1700399D01*
X2004399Y-1698499D01*
X2008000Y-1693099D01*
X2009799Y-1684000D01*
X2009799Y-1674899D01*
X2008000Y-1667600D01*
X2004399Y-1664000D01*
X1998900Y-1662199D01*
X1997100Y-1662199D01*
X1991599Y-1664000D01*
X1988000Y-1667600D01*
X1986199Y-1673099D01*
X1986199Y-1674899D01*
X1988000Y-1680399D01*
X1991599Y-1684000D01*
X1997100Y-1685799D01*
X1998900Y-1685799D01*
X2004399Y-1684000D01*
X2008000Y-1680399D01*
X2009799Y-1674899D01*
X1952399Y-1694899D02*
G01*
X1954200Y-1698499D01*
X1959600Y-1700399D01*
X1963299Y-1700399D01*
X1968699Y-1698499D01*
X1972399Y-1693099D01*
X1974200Y-1684000D01*
X1974200Y-1674899D01*
X1972399Y-1667600D01*
X1968699Y-1664000D01*
X1963299Y-1662199D01*
X1961499Y-1662199D01*
X1956000Y-1664000D01*
X1952399Y-1667600D01*
X1950500Y-1673099D01*
X1950500Y-1674899D01*
X1952399Y-1680399D01*
X1956000Y-1684000D01*
X1961499Y-1685799D01*
X1963299Y-1685799D01*
X1968699Y-1684000D01*
X1972399Y-1680399D01*
X1974200Y-1674899D01*
X1938500Y-1700399D02*
G01*
X1938500Y-1662199D01*
X1938500Y-1700399D02*
G01*
X1923999Y-1662199D01*
X1909499Y-1700399D02*
G01*
X1923999Y-1662199D01*
X1909499Y-1700399D02*
G01*
X1909499Y-1662199D01*
X1886499Y-1700399D02*
G01*
X1890200Y-1698499D01*
X1893800Y-1694899D01*
X1895600Y-1691300D01*
X1897500Y-1685799D01*
X1897500Y-1676700D01*
X1895600Y-1671300D01*
X1893800Y-1667600D01*
X1890200Y-1664000D01*
X1886499Y-1662199D01*
X1879300Y-1662199D01*
X1875600Y-1664000D01*
X1871999Y-1667600D01*
X1870200Y-1671300D01*
X1868400Y-1676700D01*
X1868400Y-1685799D01*
X1870200Y-1691300D01*
X1871999Y-1694899D01*
X1875600Y-1698499D01*
X1879300Y-1700399D01*
X1886499Y-1700399D01*
X1856400Y-1700399D02*
G01*
X1856400Y-1662199D01*
X1856400Y-1700399D02*
G01*
X1843599Y-1700399D01*
X1838199Y-1698499D01*
X1834499Y-1694899D01*
X1832700Y-1691300D01*
X1830900Y-1685799D01*
X1830900Y-1676700D01*
X1832700Y-1671300D01*
X1834499Y-1667600D01*
X1838199Y-1664000D01*
X1843599Y-1662199D01*
X1856400Y-1662199D01*
X1790900Y-1693099D02*
G01*
X1787299Y-1694899D01*
X1781800Y-1700399D01*
X1781800Y-1662199D01*
X1768000Y-1691300D02*
G01*
X1768000Y-1693099D01*
X1766199Y-1696700D01*
X1764399Y-1698499D01*
X1760699Y-1700399D01*
X1753500Y-1700399D01*
X1749799Y-1698499D01*
X1748000Y-1696700D01*
X1746199Y-1693099D01*
X1746199Y-1689499D01*
X1748000Y-1685799D01*
X1751599Y-1680399D01*
X1769799Y-1662199D01*
X1744399Y-1662199D01*
X1732399Y-1700399D02*
G01*
X1732399Y-1662199D01*
X1732399Y-1700399D02*
G01*
X1708699Y-1700399D01*
X1732399Y-1682199D02*
G01*
X1717799Y-1682199D01*
X1732399Y-1662199D02*
G01*
X1708699Y-1662199D01*
X1609600Y-270000D02*
G01*
X1640299Y-270000D01*
X1646400Y-268000D01*
X1650500Y-263899D01*
X1652500Y-257699D01*
X1652500Y-253600D01*
X1650500Y-247500D01*
X1646400Y-243400D01*
X1640299Y-241399D01*
X1609600Y-241399D01*
X1617799Y-227899D02*
G01*
X1615699Y-223800D01*
X1609600Y-217600D01*
X1652500Y-217600D01*
D11*
X1803199Y-258200D02*
G01*
X1803199Y-334499D01*
X1803199Y-258200D02*
G01*
X1828699Y-258200D01*
X1839600Y-261900D01*
X1846800Y-269000D01*
X1850500Y-276399D01*
X1854099Y-287100D01*
X1854099Y-305300D01*
X1850500Y-316399D01*
X1846800Y-323699D01*
X1839600Y-330900D01*
X1828699Y-334499D01*
X1803199Y-334499D01*
X1878100Y-258200D02*
G01*
X1878100Y-334499D01*
X1928999Y-258200D02*
G01*
X1928999Y-334499D01*
X1878100Y-294499D02*
G01*
X1928999Y-294499D01*
X1978500Y-258200D02*
G01*
X1978500Y-334499D01*
X1953000Y-258200D02*
G01*
X2003900Y-258200D01*
X2027899Y-301900D02*
G01*
X2093400Y-301900D01*
X2117399Y-272800D02*
G01*
X2124700Y-269000D01*
X2135600Y-258200D01*
X2135600Y-334499D01*
X2159600Y-272800D02*
G01*
X2166800Y-269000D01*
X2177700Y-258200D01*
X2177700Y-334499D01*
D12*
X2480000Y-820000D02*
G01*
X2480000Y-2536999D01*
X1479997Y-2539814D02*
G01*
X1480000Y-821999D01*
X1518999Y-780999D02*
G01*
X2440258Y-780999D01*
X2441000Y-2579000D02*
G01*
X1519741Y-2579000D01*
X2116999Y-756003D02*
G01*
X2116999Y-953004D01*
X1825000Y-953004D01*
X1825000Y-756003D01*
X2116000Y-781003D02*
G01*
X1826000Y-781003D01*
X2101000Y-953004D02*
G01*
X2116999Y-953004D01*
X2116999Y-892004D01*
X1845000Y-953004D02*
G01*
X1825000Y-953004D01*
X1825000Y-888004D01*
X2116999Y-794003D02*
G01*
X2116999Y-758004D01*
X1825000Y-794003D02*
G01*
X1825000Y-758004D01*
X2101000Y-754003D02*
G01*
X2107139Y-755374D01*
X2107139Y-755374D02*
G01*
X2116999Y-755003D01*
X1825000Y-756003D02*
G01*
X1835140Y-755374D01*
X1835140Y-755374D02*
G01*
X1840000Y-755003D01*
X2087139Y-740374D02*
G01*
X1855140Y-740374D01*
X2087139Y-732373D02*
G01*
X1855140Y-732373D01*
X2093140Y-747373D02*
G01*
X2093140Y-746374D01*
X2093140Y-746374D02*
G01*
X2093140Y-738373D01*
X1849139Y-747373D02*
G01*
X1849139Y-746374D01*
X1849139Y-746374D02*
G01*
X1849139Y-738373D01*
X2116000Y-755003D02*
G01*
X2126000Y-738004D01*
X2126999Y-737004D02*
G01*
X2119139Y-732373D01*
X2119139Y-732373D02*
G01*
X2108140Y-750374D01*
X1826000Y-755003D02*
G01*
X1816000Y-738004D01*
X1816000Y-737004D02*
G01*
X1823140Y-732373D01*
X1823140Y-732373D02*
G01*
X1834139Y-749373D01*
X2248999Y-955003D02*
G01*
X2248999Y-975003D01*
X2188999Y-975003D01*
X2188999Y-957689D01*
X2268999Y-815003D02*
G01*
X2168999Y-815003D01*
X2168999Y-955003D01*
X2268999Y-955003D01*
X2268999Y-815003D01*
X2248999Y-815003D01*
X2248999Y-795003D01*
X2188999Y-795003D01*
X2188999Y-815003D01*
X1755000Y-955003D02*
G01*
X1755000Y-975003D01*
X1695000Y-975003D01*
X1695000Y-958690D01*
X1775000Y-815003D02*
G01*
X1675000Y-815003D01*
X1675000Y-955003D01*
X1775000Y-955003D01*
X1775000Y-815003D01*
X1755000Y-815003D01*
X1755000Y-795003D01*
X1695000Y-795003D01*
X1695000Y-815003D01*
X2337898Y-2561803D02*
G01*
X2337898Y-2030302D01*
X2337898Y-1557903D01*
X2337898Y-1557903D02*
G01*
X1629198Y-1557903D01*
X2337898Y-2561803D02*
G01*
X1629198Y-2561803D01*
X1629198Y-2561803D02*
G01*
X1629198Y-1557903D01*
X2337898Y-2325603D02*
G01*
X1707998Y-2325603D01*
X1629198Y-2325603D01*
D13*
X1685999Y-2345803D02*
G01*
X1685999Y-2527802D01*
X1899998Y-2527802D01*
X1899998Y-2425803D01*
X2001998Y-2425803D01*
X2001998Y-2527802D01*
X2101998Y-2527802D01*
X2101998Y-2425803D01*
X2196998Y-2425803D01*
X2196998Y-2527802D01*
X2276998Y-2527802D01*
X2276998Y-2345803D01*
X1790999Y-2342802D02*
G01*
X1790999Y-2527303D01*
D12*
X2279998Y-2225803D02*
G01*
X2279998Y-1625803D01*
X1679998Y-1625803D01*
X1679998Y-2225803D01*
X2279998Y-2225803D01*
X2335000Y-100079D02*
G01*
X2335000Y-415039D01*
X2335000Y-420000D02*
G01*
X1665709Y-420000D01*
X1665709Y-420000D02*
G01*
X1665709Y-105039D01*
X2335000Y-105039D01*
G75*
G01*
X2110000Y-755004D02*
G02*
X2092500Y-748904I-2755J20249D01*
G75*
G01*
X2092500Y-747104D02*
G03*
X2086500Y-741404I-5906J-209D01*
G75*
G01*
X2092500Y-739004D02*
G03*
X2086500Y-732904I-5907J191D01*
G75*
G01*
X1854400Y-732904D02*
G03*
X1848400Y-739004I-93J-5909D01*
G75*
G01*
X1854400Y-741404D02*
G03*
X1848400Y-747104I-94J-5909D01*
G75*
G01*
X1848400Y-748904D02*
G02*
X1833000Y-755004I-12976J10269D01*
G75*
G01*
X2107600Y-751004D02*
G03*
X2106000Y-755004I4565J-4146D01*
G75*
G01*
X1833100Y-750804D02*
G02*
X1834000Y-755004I-5201J-3311D01*
G75*
G01*
X1519000Y-2579000D02*
G02*
X1479630Y-2539630I0J39370D01*
G75*
G01*
X2480000Y-2540000D02*
G02*
X2440630Y-2579370I-39370J0D01*
G75*
G01*
X1480000Y-820000D02*
G02*
X1519370Y-780630I39370J0D01*
G75*
G01*
X2441000Y-781000D02*
G02*
X2480368Y-819987I0J-39370D01*
G75*
G01
X2229000Y-880000D02*
G03X2229000Y-880000I-5000J0D01*
G75*
G01
X2219000Y-890000D02*
G03X2219000Y-890000I-5000J0D01*
G75*
G01
X2229000Y-885000D02*
G03X2229000Y-885000I-10000J0D01*
G75*
G01
X2239000Y-885000D02*
G03X2239000Y-885000I-20000J0D01*
G75*
G01
X2249000Y-885000D02*
G03X2249000Y-885000I-30000J0D01*
G75*
G01
X1735000Y-880000D02*
G03X1735000Y-880000I-5000J0D01*
G75*
G01
X1725000Y-890000D02*
G03X1725000Y-890000I-5000J0D01*
G75*
G01
X1735000Y-885000D02*
G03X1735000Y-885000I-10000J0D01*
G75*
G01
X1745000Y-885000D02*
G03X1745000Y-885000I-20000J0D01*
G75*
G01
X1755000Y-885000D02*
G03X1755000Y-885000I-30000J0D01*
M02*
