M48
INCH,LZ
;FILE_FORMAT=2:4
;TYPE=PLATED
;Layer: PTH_Through
;EasyEDA v6.5.46, 2025-03-12 12:44:04
;43a005aebb1148eda2c6f0889f11ea4c,3f48c7b914b54ba696cb8a095b2acdd1,10
;Gerber Generator version 0.2
;Holesize 1 = 0.0360 inch
T01C0.0360
%
G05
G90
T01
X024300Y-023800
X024300Y-022800
X024300Y-021800
X024300Y-020800
X024300Y-019800
X024300Y-018800
X024300Y-017800
X024300Y-016800
X024300Y-015800
X024300Y-014800
X024300Y-013800
X024300Y-012800
X024300Y-011800
X024300Y-010800
X024300Y-009800
X015300Y-009800
X015300Y-010800
X015300Y-011800
X015300Y-012800
X015300Y-013800
X015300Y-014800
X015300Y-015800
X015300Y-016800
X015300Y-017800
X015300Y-018800
X015300Y-019800
X015300Y-020800
X015300Y-021800
X015300Y-022800
X015300Y-023800
X020987Y-001834
X019987Y-001834
X018988Y-001838
M30
